<svg width="71" height="76" viewBox="0 0 71 76" fill="none" xmlns="http://www.w3.org/2000/svg">
<g opacity="0.25">
<path d="M35.1162 74.2C40.1972 74.2 44.3162 58.0823 44.3162 38.2C44.3162 18.3178 40.1972 2.20001 35.1162 2.20001C30.0352 2.20001 25.916 18.3178 25.916 38.2C25.916 58.0823 30.0352 74.2 35.1162 74.2Z" stroke="white" stroke-width="2.3329" stroke-miterlimit="10" stroke-linecap="round" stroke-linejoin="round"/>
<path d="M64.9152 58.2795C67.7458 54.0602 56.6563 41.6606 40.1461 30.5842C23.6359 19.5078 7.95704 13.949 5.12641 18.1683C2.29577 22.3875 13.3852 34.7873 29.8954 45.8637C46.4056 56.9401 62.0846 62.4987 64.9152 58.2795Z" stroke="white" stroke-width="2.3329" stroke-miterlimit="10" stroke-linecap="round" stroke-linejoin="round"/>
<path d="M40.1451 45.8402C56.6553 34.7638 67.7448 22.3642 64.9141 18.1449C62.0835 13.9257 46.4046 19.4845 29.8944 30.5609C13.3842 41.6373 2.29469 54.0369 5.12533 58.2561C7.95596 62.4754 23.6348 56.9166 40.1451 45.8402Z" stroke="white" stroke-width="2.3329" stroke-miterlimit="10" stroke-linecap="round" stroke-linejoin="round"/>
<path d="M35.1155 44.5C38.3187 44.5 40.9153 41.9033 40.9153 38.7C40.9153 35.4968 38.3187 32.9 35.1155 32.9C31.9122 32.9 29.3154 35.4968 29.3154 38.7C29.3154 41.9033 31.9122 44.5 35.1155 44.5Z" fill="#FDDC69"/>
<path d="M58.3162 49.9C59.9178 49.9 61.2161 48.6016 61.2161 47C61.2161 45.3984 59.9178 44.1 58.3162 44.1C56.7145 44.1 55.416 45.3984 55.416 47C55.416 48.6016 56.7145 49.9 58.3162 49.9Z" fill="#240312"/>
<path d="M57.1162 47H59.3162" stroke="white" stroke-width="1.5785" stroke-miterlimit="10" stroke-linecap="round" stroke-linejoin="round"/>
<path d="M35.2153 5.79999C36.817 5.79999 38.1155 4.50165 38.1155 2.90002C38.1155 1.2984 36.817 0 35.2153 0C33.6137 0 32.3154 1.2984 32.3154 2.90002C32.3154 4.50165 33.6137 5.79999 35.2153 5.79999Z" fill="#240312"/>
<path d="M34.1152 3H36.3152" stroke="white" stroke-width="1.5785" stroke-miterlimit="10" stroke-linecap="round" stroke-linejoin="round"/>
<path d="M11.1152 48.8C12.7721 48.8 14.1152 47.4569 14.1152 45.8C14.1152 44.1432 12.7721 42.8 11.1152 42.8C9.45838 42.8 8.11523 44.1432 8.11523 45.8C8.11523 47.4569 9.45838 48.8 11.1152 48.8Z" fill="#240312"/>
<path d="M9.91504 45.9001H12.2151" stroke="white" stroke-width="1.5785" stroke-miterlimit="10" stroke-linecap="round" stroke-linejoin="round"/>
</g>
</svg>
