<svg width="96" height="97" viewBox="0 0 96 97" fill="none" xmlns="http://www.w3.org/2000/svg">
<g opacity="0.65">
<path d="M11.1451 6.8173L1.74512 54.2173L84.9452 70.8173L94.3451 23.4173C95.1451 19.5173 92.545 15.7173 88.745 14.9173L19.6451 1.11732C15.7451 0.417315 11.9451 2.9173 11.1451 6.8173Z" stroke="#2B82FB" stroke-width="2" stroke-miterlimit="10"/>
<path d="M11.1451 6.8173L1.74512 54.2173L84.9452 70.8173L94.3451 23.4173C95.1451 19.5173 92.545 15.7173 88.745 14.9173L19.6451 1.11732C15.7451 0.417315 11.9451 2.9173 11.1451 6.8173Z" stroke="#2B82FB" stroke-width="2" stroke-miterlimit="10"/>
<path d="M1.74496 54.2173L1.14498 57.1173C0.344981 61.0173 2.94496 64.8173 6.74496 65.6173L75.8449 79.4173C79.7449 80.2173 83.5449 77.6173 84.3449 73.8173L84.945 70.9173L1.74496 54.2173Z" stroke="#2B82FB" stroke-width="2" stroke-miterlimit="10"/>
<path d="M1.74496 54.2173L1.14498 57.1173C0.344981 61.0173 2.94496 64.8173 6.74496 65.6173L75.8449 79.4173C79.7449 80.2173 83.5449 77.6173 84.3449 73.8173L84.945 70.9173L1.74496 54.2173Z" stroke="#2B82FB" stroke-width="2" stroke-miterlimit="10"/>
<path d="M27.3447 84.0173L49.8447 88.5173L49.9448 74.1173L32.7446 70.7173L27.3447 84.0173Z" stroke="#2B82FB" stroke-width="2" stroke-miterlimit="10"/>
<path d="M27.3447 84.0173L49.8447 88.5173L49.9448 74.1173L32.7446 70.7173L27.3447 84.0173Z" stroke="#2B82FB" stroke-width="2" stroke-miterlimit="10"/>
<path d="M21.7447 88.9175L53.1447 95.2175C54.7447 95.5175 56.2447 94.5175 56.6447 92.9175C56.9447 91.3175 55.9447 89.8175 54.3447 89.4175L22.9447 83.1175C21.3447 82.8175 19.8447 83.8175 19.4447 85.4175C19.1447 87.0175 20.1447 88.5175 21.7447 88.9175Z" stroke="#2B82FB" stroke-width="2" stroke-miterlimit="10"/>
<path d="M21.7447 88.9175L53.1447 95.2175C54.7447 95.5175 56.2447 94.5175 56.6447 92.9175C56.9447 91.3175 55.9447 89.8175 54.3447 89.4175L22.9447 83.1175C21.3447 82.8175 19.8447 83.8175 19.4447 85.4175C19.1447 87.0175 20.1447 88.5175 21.7447 88.9175Z" stroke="#2B82FB" stroke-width="2" stroke-miterlimit="10"/>
</g>
</svg>
