<svg width="164" height="115" viewBox="0 0 164 115" fill="none" xmlns="http://www.w3.org/2000/svg">
<path opacity="0.38" d="M159.637 78.2733L132.398 83.6437C115.711 79.9143 101.418 70.5907 89.6701 55.8223C89.6701 55.5239 89.6702 55.2256 89.5953 54.9272C84.6565 40.5317 80.6156 22.7797 78.1462 4.87858C77.9965 3.68517 76.874 2.8647 75.6767 3.01388C74.5543 3.16306 73.6563 4.28188 73.806 5.47529C75.6767 18.9012 78.4456 32.327 81.7381 44.3357C78.8197 39.4875 76.0509 34.2663 73.5814 28.5976C73.5066 28.4484 73.4318 28.3738 73.4318 28.2993C72.5339 20.4675 72.085 12.1136 72.2346 3.23764C72.2346 2.04423 71.2617 1.07459 70.0644 1C68.8671 1 67.8943 1.96964 67.8195 3.16305C67.7447 9.35387 67.8943 15.3209 68.3433 21.1388C67.9691 21.4371 67.6698 21.8101 67.595 22.2576C65.4249 22.3322 63.2548 22.7051 61.2344 23.451C61.0099 23.0781 60.7107 22.7797 60.4113 22.6306C58.3909 16.9619 55.9964 11.4423 53.1528 5.99741C52.629 4.95317 51.2819 4.50564 50.2343 5.10235C49.1867 5.62446 48.7377 6.96705 49.3364 8.01128C53.1527 15.3209 56.146 22.8543 58.3909 30.5369C58.4658 30.6861 58.4657 30.8353 58.5406 30.9844V31.059C58.5406 31.2082 58.5406 31.2828 58.5406 31.432C59.5134 40.0096 59.1392 48.3635 57.4181 56.3444C56.146 43.2169 53.452 27.8517 49.486 10.5473C49.1867 9.35387 48.0642 8.60799 46.8669 8.90634C45.6696 9.2047 44.9213 10.3235 45.2207 11.5169C50.384 33.8188 53.3024 52.7642 53.8262 67.7564C53.8262 67.9056 53.8263 67.9801 53.9011 68.1293C48.7378 81.3314 39.6084 93.5639 26.7375 104.827L3.46506 109.451C2.49226 109.675 1.81885 110.57 2.04334 111.54C2.26784 112.509 3.16584 113.181 4.13864 112.957L20.8258 109.675L29.8804 107.885L57.4181 102.44L57.7923 102.365L62.2072 101.47L62.6563 101.396L64.8263 100.948L76.2005 98.7105L78.3707 98.2629L80.5407 97.8154L82.7109 97.3679L93.711 95.2048L95.881 94.7573L96.5546 94.6081L96.8539 94.5335L101.194 93.6385L101.568 93.5639L130.677 87.746L143.024 85.2846L160.535 81.779C161.508 81.5552 162.181 80.6601 161.957 79.6905C161.582 78.7208 160.61 78.0496 159.637 78.2733ZM73.6563 52.6896C74.704 56.419 75.9013 59.9246 77.2483 63.3557C75.8265 61.118 74.5543 58.955 73.2822 56.7173C73.4319 55.3748 73.5067 54.0322 73.6563 52.6896ZM62.5066 29.5673C62.5815 29.9402 62.7311 30.2386 62.8059 30.6115C62.8807 30.9844 63.0303 31.2828 63.1051 31.6557L68.7174 30.5369C69.5406 36.504 69.7651 42.6948 69.4658 49.1839C67.146 44.3357 65.2752 39.4129 63.8534 34.5647C63.5541 33.595 63.3297 32.6254 63.0304 31.6557C62.9556 31.2828 62.8806 30.9844 62.731 30.6115C62.6562 30.3131 62.5815 29.9402 62.5066 29.5673ZM66.8467 54.0322C67.4453 55.2256 68.044 56.419 68.7174 57.6124C68.3433 61.0435 67.8196 64.4745 67.1461 67.9802C67.2958 63.2811 67.2208 58.6566 66.8467 54.0322ZM58.2411 98.4121L34.7444 103.111C50.384 87.8952 59.5881 71.0383 62.3568 52.6896C63.7038 67.3089 62.282 82.5994 58.2411 98.4121ZM77.8469 94.5335C77.6973 92.4451 77.4728 90.3566 77.2483 88.1935C77.8469 90.282 78.5204 92.2959 79.119 94.3098L77.8469 94.5335ZM93.5614 91.4008L92.5886 91.6246L81.2891 93.8622C78.67 85.9559 76.2754 76.9307 74.0305 66.563C74.0305 66.4884 73.9556 66.4884 73.9556 66.4138C73.8059 65.6679 73.6564 64.8475 73.5067 64.1016C73.2822 62.9082 72.9829 61.7893 72.7584 60.5959C72.5339 59.4771 72.3093 58.2837 72.0848 57.0903C71.9352 56.4936 71.4114 56.1206 70.8127 56.1952C70.2141 56.3444 69.8401 56.8665 69.9897 57.4632C70.2142 58.6566 70.5135 59.9246 70.738 61.118C70.9625 62.2369 71.1869 63.4303 71.4114 64.5491C71.5611 65.295 71.7108 66.0409 71.8605 66.7867C71.8605 66.8613 71.8605 66.8613 71.8605 66.9359C73.8061 77.3783 75.0781 86.6272 75.6767 94.9811L64.078 97.2933L63.4793 97.4425L63.0304 97.5171C63.3297 96.4728 70.2142 76.2594 71.8605 66.9359C71.7108 66.19 71.5611 65.3696 71.4114 64.6237C71.1869 63.4303 70.8876 62.3115 70.6631 61.118C70.4386 59.9246 70.2142 58.8058 69.9897 57.6124C69.8401 57.0157 70.289 56.419 70.8876 56.3444C71.4863 56.1952 72.0849 56.6428 72.1597 57.1649C72.3842 58.2837 72.6086 59.4025 72.8331 60.5213C73.0576 61.7893 73.2821 62.9827 73.5814 64.1762C73.7311 64.9966 73.9557 65.8171 74.1054 66.563C79.0442 74.2456 93.4866 91.1025 93.5614 91.4008ZM98.7247 90.3566L98.5001 90.4312C97.8266 89.6107 97.1532 88.8648 96.4797 88.0444C86.3776 75.6627 79.4931 60.6705 75.6767 42.8439C87.8742 64.6237 103.663 78.9446 122.97 85.6575L98.7247 90.3566Z" stroke="white" stroke-opacity="0.53" stroke-width="2" stroke-miterlimit="10"/>
</svg>
