<svg width="436" height="115" viewBox="0 0 436 115" fill="none" xmlns="http://www.w3.org/2000/svg">
<path d="M224.829 13.73C123.896 8.3361 7.13108 5.39394 7.13108 5.39394L0.53418 110.821C0.53418 110.821 91.5715 99.0524 242.641 110.821C393.71 122.59 435.93 103.236 435.93 103.236V0C435.93 0 325.762 19.124 224.829 13.73Z" fill="black"/>
<path d="M224.615 18.1876C126.607 13.6156 13.226 11.1218 13.226 11.1218L6.82031 100.484C6.82031 100.484 95.2193 90.5085 241.91 100.484C388.602 110.459 429.598 94.0542 429.598 94.0542V6.5498C429.598 6.5498 322.623 22.7597 224.615 18.1876Z" fill="#FDDC69"/>
<path d="M19.2607 90.0562V77.5029L38.7677 83.5067L126.939 91.6936L38.7677 90.0562H19.2607Z" fill="#FAE6A1"/>
</svg>
